<svg width="32" height="16" viewBox="0 0 32 16" fill="none" xmlns="http://www.w3.org/2000/svg">
<path d="M0.997759 12.7591C0.85574 12.5291 0.662695 12.1612 0.546627 11.8905C-0.139598 10.2973 -0.172448 8.64861 0.407126 7.06592C1.0443 5.33016 2.26148 4.00129 3.8342 3.3247C5.81141 2.47378 7.9982 2.64154 9.89318 3.76597C11.097 4.45658 11.9504 5.52287 12.5984 7.03045L12.6586 7.17706L12.7707 7.46833C12.7888 7.5153 12.8065 7.56096 12.8242 7.60476L0.997759 12.7591ZM4.94681 5.88225C3.54272 6.48569 2.81893 7.80285 2.96763 9.34721L8.91558 6.78736C7.89276 5.58518 6.56148 5.18682 4.94681 5.88225ZM11.9562 12.9891L9.65721 11.452L9.65393 11.4554L9.53074 11.3724C9.17597 11.9483 8.62202 12.4148 7.92331 12.7178C6.59378 13.2959 5.3617 13.1473 4.47696 12.3713L4.3956 12.4951C4.39472 12.4936 4.39451 12.4925 4.39297 12.4925L2.88409 14.7501C3.25944 15.0109 3.66144 15.2311 4.08331 15.4071C5.7502 16.0994 7.45564 16.0673 9.13578 15.3367C10.3511 14.81 11.3046 14.0069 11.9562 12.989V12.9891ZM16.9579 0V12.5507L18.9092 13.3415L17.8004 15.9286L15.6465 15.0317C15.163 14.8225 14.8341 14.5019 14.5848 14.1404C14.3467 13.7718 14.1685 13.2659 14.1685 12.5849V0H16.9579ZM22.0129 9.35334C22.014 8.28464 22.4859 7.3262 23.2327 6.67479L21.2307 4.44256C19.873 5.64266 19.0178 7.39639 19.0162 9.35028C19.0141 11.3048 19.8679 13.0603 21.2243 14.2636L23.2239 12.0291C22.4808 11.3752 22.012 10.4196 22.0129 9.35334ZM25.5698 12.9156C25.1756 12.9146 24.796 12.8494 24.442 12.7316L23.486 15.5742C24.1567 15.799 24.8593 15.9138 25.5667 15.9143C28.7365 15.9173 31.3833 13.6682 31.9966 10.6784L29.058 10.0783C28.7238 11.6989 27.2888 12.9167 25.5698 12.9156ZM25.5786 2.79921C24.8721 2.79782 24.1701 2.91083 23.4998 3.13384L24.4475 5.97904C24.8114 5.85859 25.1923 5.79715 25.5757 5.79706C27.2988 5.7987 28.7348 7.02377 29.0611 8.64894L32 8.05283C31.3951 5.0586 28.751 2.80118 25.5786 2.79921Z" fill="white"/>
</svg>
