<svg width="32" height="20" viewBox="0 0 32 20" fill="none" xmlns="http://www.w3.org/2000/svg">
<path d="M15.125 17.926L15.364 18.119C13.7438 19.2 11.8387 19.7746 9.891 19.77C4.427 19.77 0 15.349 0 9.88505C0 4.42605 4.427 4.655e-05 9.885 4.655e-05C11.912 4.655e-05 13.797 0.604047 15.36 1.64505C15.283 1.709 15.2096 1.77711 15.14 1.84905C12.803 3.86905 11.459 6.80205 11.459 9.88505C11.459 12.968 12.798 15.901 15.126 17.926H15.125ZM22.115 4.655e-05C20.1674 -0.00594507 18.2618 0.56659 16.64 1.64505C16.719 1.71305 16.797 1.78105 16.86 1.84905C18.0144 2.84584 18.9406 4.07947 19.5758 5.4661C20.211 6.85274 20.5402 8.35986 20.541 9.88505C20.541 12.964 19.202 15.896 16.874 17.926C16.7948 17.9909 16.7151 18.0553 16.635 18.119C18.2549 19.2006 20.1602 19.7754 22.108 19.77C27.572 19.77 31.999 15.349 31.999 9.88505C31.999 4.42605 27.573 4.655e-05 22.115 4.655e-05ZM16 2.12005C14.8224 3.04301 13.8704 4.22195 13.2162 5.5675C12.562 6.91304 12.2227 8.38988 12.224 9.88605C12.2221 11.383 12.5611 12.8608 13.2153 14.2073C13.8696 15.5537 14.8219 16.7335 16 17.657C16.131 17.558 16.251 17.454 16.375 17.345C17.4439 16.4186 18.301 15.273 18.8878 13.9859C19.4746 12.6989 19.7776 11.3006 19.776 9.88605C19.7772 8.3899 19.4378 6.91312 18.7836 5.56759C18.1294 4.22207 17.1775 3.04311 16 2.12005Z" fill="white"/>
</svg>
