<svg width="32" height="11" viewBox="0 0 32 11" fill="none" xmlns="http://www.w3.org/2000/svg">
<path d="M29.6293 10.1973L29.3293 8.69733H25.9773L25.444 10.1867L22.7573 10.192C24.0364 7.11619 25.3181 4.04152 26.6027 0.968C26.8213 0.446666 27.2093 0.181334 27.7813 0.184001C28.2187 0.188001 28.932 0.188 29.9227 0.185333L32 10.1933L29.6293 10.1973ZM26.732 6.64267H28.892L28.0853 2.88267L26.732 6.64267ZM9.41333 0.182667L12.1147 0.185333L7.93867 10.1987L5.204 10.196C4.51633 7.55109 3.83722 4.90397 3.16667 2.25467C3.03333 1.72667 2.76933 1.35733 2.26133 1.18267C1.51097 0.931232 0.757115 0.69032 0 0.46L0 0.186667H4.316C5.06267 0.186667 5.49867 0.548 5.63867 1.28933C5.78 2.032 6.13467 3.92267 6.70533 6.96133L9.41333 0.182667ZM15.8267 0.185333L13.6907 10.196L11.12 10.1933L13.2533 0.182667L15.8267 0.185333ZM21.04 0C21.8093 0 22.7787 0.24 23.336 0.46L22.8853 2.536C22.3813 2.33333 21.552 2.06 20.8547 2.06933C19.8413 2.08667 19.2147 2.512 19.2147 2.92C19.2147 3.584 20.3027 3.91867 21.4227 4.644C22.7013 5.47067 22.8693 6.21333 22.8533 7.02C22.836 8.69467 21.4227 10.3467 18.4413 10.3467C17.0813 10.3267 16.5907 10.212 15.4813 9.81867L15.9507 7.652C17.08 8.12533 17.5587 8.276 18.524 8.276C19.408 8.276 20.1667 7.91867 20.1733 7.296C20.1787 6.85333 19.9067 6.63333 18.9147 6.08667C17.9227 5.53867 16.5307 4.78 16.5493 3.25733C16.572 1.308 18.4187 0 21.0413 0H21.04Z" fill="white"/>
</svg>
